<svg width="60" height="60" viewBox="0 0 60 60" fill="none" xmlns="http://www.w3.org/2000/svg">
<path d="M30 52C17.8497 52 8 42.1503 8 30C8 17.8497 17.8497 8 30 8C42.1503 8 52 17.8497 52 30C52 42.1503 42.1503 52 30 52Z" stroke="white" stroke-opacity="0.3"/>
<circle cx="30" cy="30" r="29.5" transform="rotate(90 30 30)" stroke="white" stroke-opacity="0.1"/>
<circle cx="30" cy="30" r="15" transform="rotate(90 30 30)" fill="white" fill-opacity="0.15"/>
<path d="M36.2824 34.6071C36.2824 34.5446 36.2824 34.4821 36.2556 34.4196C36.1931 34.2321 35.7556 34.0357 35.577 33.9464C35.0681 33.6607 34.5502 33.3839 34.0502 33.0893C33.8181 32.9464 33.5324 32.6786 33.2556 32.6786C32.7109 32.6786 31.9163 34.2946 31.4342 34.2946C31.1931 34.2946 30.8806 34.0714 30.6663 33.9464C29.0413 33.0446 27.9163 31.9196 27.0145 30.2946C26.8895 30.0804 26.6663 29.7679 26.6663 29.5268C26.6663 29.0446 28.2824 28.25 28.2824 27.7054C28.2824 27.4286 28.0145 27.1429 27.8717 26.9107C27.577 26.4107 27.3002 25.8929 27.0145 25.3839C26.9252 25.2054 26.7288 24.7679 26.5413 24.7054C26.4788 24.6786 26.4163 24.6786 26.3538 24.6786C26.0324 24.6786 25.4074 24.8214 25.1127 24.9554C24.6752 25.1429 24.3895 25.6429 24.1663 26.0446C23.8806 26.5714 23.7109 27.1071 23.7109 27.7054C23.7109 28.5357 24.0502 29.2857 24.327 30.0446C24.5234 30.5893 24.7645 31.1161 25.0681 31.6071C26.0056 33.125 27.8359 34.9554 29.3538 35.8929C29.8449 36.1964 30.3717 36.4375 30.9163 36.6339C31.6752 36.9107 32.4252 37.25 33.2556 37.25C33.8538 37.25 34.3895 37.0804 34.9163 36.7946C35.3181 36.5714 35.8181 36.2857 36.0056 35.8482C36.1395 35.5536 36.2824 34.9286 36.2824 34.6071Z" fill="white"/>
</svg>
