<svg width="46" height="46" viewBox="0 0 46 46" fill="none" xmlns="http://www.w3.org/2000/svg">
<ellipse cx="23" cy="23" rx="7" ry="7" transform="rotate(90 23 23)" fill="#FFAC30"/>
<path d="M23 37.5C14.9919 37.5 8.5 31.0081 8.5 23C8.5 14.9919 14.9919 8.5 23 8.5C31.0081 8.5 37.5 14.9919 37.5 23C37.5 31.0081 31.0081 37.5 23 37.5Z" stroke="#FFAC30" stroke-opacity="0.5"/>
<path d="M23 45.5C10.5736 45.5 0.500002 35.4264 0.500003 23C0.500003 10.5736 10.5736 0.499998 23 0.499999C35.4264 0.5 45.5 10.5736 45.5 23C45.5 35.4264 35.4264 45.5 23 45.5Z" stroke="#FFAC30" stroke-opacity="0.2"/>
</svg>
