<svg width="250" height="292" viewBox="0 0 250 292" fill="none" xmlns="http://www.w3.org/2000/svg">
<path d="M114.906 180.594C114.906 182.573 114.521 184.438 113.75 186.188C113 187.938 111.969 189.469 110.656 190.781C109.365 192.073 107.844 193.104 106.094 193.875C104.344 194.625 102.479 195 100.5 195H84.4999C82.5208 195 80.6562 194.625 78.9062 193.875C77.1562 193.104 75.6249 192.073 74.3124 190.781C73.0208 189.469 71.9895 187.938 71.2187 186.188C70.4687 184.438 70.0937 182.573 70.0937 180.594V164.594C70.0937 162.615 70.4687 160.75 71.2187 159C71.9895 157.25 73.0208 155.729 74.3124 154.438C75.6249 153.125 77.1562 152.094 78.9062 151.344C80.6562 150.573 82.5208 150.188 84.4999 150.188H111.687V156.594H84.4999C83.3958 156.594 82.3541 156.802 81.3749 157.219C80.4166 157.635 79.5729 158.208 78.8437 158.938C78.1145 159.667 77.5416 160.521 77.1249 161.5C76.7083 162.458 76.4999 163.49 76.4999 164.594V180.594C76.4999 181.698 76.7083 182.74 77.1249 183.719C77.5416 184.698 78.1145 185.552 78.8437 186.281C79.5729 186.99 80.4166 187.552 81.3749 187.969C82.3541 188.385 83.3958 188.594 84.4999 188.594H100.5C101.604 188.594 102.635 188.385 103.594 187.969C104.573 187.552 105.427 186.99 106.156 186.281C106.885 185.552 107.458 184.698 107.875 183.719C108.292 182.74 108.5 181.698 108.5 180.594C108.5 179.49 108.292 178.458 107.875 177.5C107.458 176.521 106.885 175.667 106.156 174.938C105.427 174.208 104.573 173.635 103.594 173.219C102.635 172.802 101.604 172.594 100.5 172.594H79.6874V166.188H100.5C102.479 166.188 104.344 166.573 106.094 167.344C107.844 168.094 109.365 169.125 110.656 170.438C111.969 171.729 113 173.25 113.75 175C114.521 176.75 114.906 178.615 114.906 180.594ZM119.812 150.188H126.219V166.188C126.219 167.062 126.385 167.896 126.719 168.688C127.052 169.458 127.51 170.135 128.094 170.719C128.677 171.302 129.354 171.76 130.125 172.094C130.917 172.427 131.75 172.594 132.625 172.594H158.219V150.188H164.625V195H158.219V179H132.625C130.854 179 129.187 178.667 127.625 178C126.083 177.312 124.729 176.396 123.562 175.25C122.417 174.083 121.5 172.729 120.812 171.188C120.146 169.625 119.812 167.958 119.812 166.188V150.188Z" fill="white"/>
<path d="M125.265 38V29.6445C125.265 28.6211 125.046 27.8555 124.609 27.3477C124.171 26.832 123.492 26.5742 122.57 26.5742C121.359 26.5742 120.464 26.9219 119.886 27.6172C119.308 28.3125 119.019 29.3828 119.019 30.8281V38H117.074V29.6445C117.074 28.6211 116.855 27.8555 116.418 27.3477C115.98 26.832 115.296 26.5742 114.367 26.5742C113.148 26.5742 112.253 26.9414 111.683 27.6758C111.121 28.4023 110.839 29.5977 110.839 31.2617V38H108.894V25.1562H110.476L110.793 26.9141H110.886C111.253 26.2891 111.769 25.8008 112.433 25.4492C113.105 25.0977 113.855 24.9219 114.683 24.9219C116.691 24.9219 118.003 25.6484 118.621 27.1016H118.714C119.097 26.4297 119.652 25.8984 120.378 25.5078C121.105 25.1172 121.933 24.9219 122.863 24.9219C124.316 24.9219 125.402 25.2969 126.121 26.0469C126.847 26.7891 127.211 27.9805 127.211 29.6211V38H125.265Z" fill="white"/>
<path d="M138.247 28H131.677V27.0225L134.309 24.377C135.111 23.5658 135.64 22.987 135.895 22.6406C136.15 22.2943 136.342 21.957 136.469 21.6289C136.597 21.3008 136.661 20.9476 136.661 20.5693C136.661 20.0361 136.499 19.6146 136.175 19.3047C135.852 18.9902 135.403 18.833 134.829 18.833C134.414 18.833 134.02 18.9014 133.646 19.0381C133.277 19.1748 132.864 19.4232 132.409 19.7832L131.807 19.0107C132.728 18.2451 133.73 17.8623 134.815 17.8623C135.754 17.8623 136.49 18.1038 137.023 18.5869C137.556 19.0654 137.823 19.7103 137.823 20.5215C137.823 21.1549 137.645 21.7816 137.29 22.4014C136.934 23.0212 136.269 23.805 135.294 24.7529L133.106 26.8926V26.9473H138.247V28Z" fill="white"/>
<path d="M117.5 291C53.1588 291 1.00001 238.841 1.00001 174.5C1.00001 110.159 53.1588 58 117.5 58C181.841 58 234 110.159 234 174.5C234 238.841 181.841 291 117.5 291Z" stroke="white" stroke-opacity="0.4" stroke-width="2"/>
<mask id="mask0_844_83" style="mask-type:alpha" maskUnits="userSpaceOnUse" x="117" y="57" width="133" height="78">
<rect width="132" height="78" transform="matrix(1 0 0 -1 118 135)" fill="#C4C4C4"/>
</mask>
<g mask="url(#mask0_844_83)">
<path d="M117.499 291C53.1583 291 0.999458 238.841 0.999461 174.5C0.999464 110.159 53.1583 58 117.499 58C181.841 58 233.999 110.159 233.999 174.5C233.999 238.841 181.841 291 117.499 291Z" stroke="#FFAC30" stroke-width="2"/>
</g>
<ellipse cx="117.999" cy="58" rx="4" ry="4" transform="rotate(90 117.999 58)" fill="#FFAC30"/>
<ellipse cx="225" cy="132" rx="7" ry="7" transform="rotate(90 225 132)" fill="#FFAC30"/>
<path d="M225 146.5C216.992 146.5 210.5 140.008 210.5 132C210.5 123.992 216.992 117.5 225 117.5C233.008 117.5 239.5 123.992 239.5 132C239.5 140.008 233.008 146.5 225 146.5Z" stroke="#FFAC30" stroke-opacity="0.5"/>
<path d="M225 154.5C212.574 154.5 202.5 144.426 202.5 132C202.5 119.574 212.574 109.5 225 109.5C237.426 109.5 247.5 119.574 247.5 132C247.5 144.426 237.426 154.5 225 154.5Z" stroke="#FFAC30" stroke-opacity="0.2"/>
</svg>
