<svg width="94" height="92" fill="none" xmlns="http://www.w3.org/2000/svg"><path d="M55.027 39l23.067 17.72a5.75 5.75 0 011.18 7.898v0a5.75 5.75 0 01-8.03 1.336l-6.61-4.733" stroke="#FFAC30" stroke-linecap="round"/><path d="M55.027 39c-4.5-3.5-8.5-1-14.5-1-4.5 0-8.5-2.5-9-6.5-.375-3 11.5-4 16.5-4.5s9 2 12.5 3c2.8.8 8-1.333 10.5-2.5" stroke="#FFAC30"/><path d="M66.393 62.435l4.554 3.36a4.946 4.946 0 011.09 6.851v0a4.946 4.946 0 01-6.844 1.194l-6.288-4.357" stroke="#FFAC30" stroke-linecap="round"/><path d="M59.026 69.5l5.61 4.052a4.108 4.108 0 01.882 5.794v0a4.108 4.108 0 01-5.786.796L53.027 75" stroke="#FFAC30" stroke-linecap="round"/><path d="M53.027 75l4.604 3.454a4.246 4.246 0 01.85 5.942v0a4.245 4.245 0 01-5.815.943l-5.14-3.56" stroke="#FFAC30" stroke-linecap="round"/><rect x="11.865" y="60.611" width="19.632" height="9.939" rx="4.97" transform="rotate(-39.352 11.865 60.61)" stroke="#FFAC30"/><rect x="24.839" y="75.865" width="19.012" height="10.004" rx="5.002" transform="rotate(-39.352 24.839 75.865)" stroke="#FFAC30"/><rect x="31.134" y="83.766" width="15.328" height="9.425" rx="4.712" transform="rotate(-39.352 31.134 83.766)" stroke="#FFAC30"/><rect x="18.23" y="68.364" width="24.616" height="10.004" rx="5.002" transform="rotate(-39.352 18.23 68.364)" stroke="#FFAC30"/><rect y="53.425" width="38.558" height="6.645" rx="3.322" transform="rotate(-60 0 53.425)" fill="#FFAC30"/><rect width="38.558" height="7.633" rx="3.816" transform="scale(-1 1) rotate(-60 -.869 107.366)" fill="#FFAC30"/><path d="M8.027 52c2 0 4.5.5 8 5m68.5-5c-1.75 0-3.938.4-7 4M21.67 27.521l10 3" stroke="#FFAC30"/><path stroke="#FFAC30" stroke-linecap="round" d="M46.027 11.5V.5m-13.19 16.347L26.373 6.69m33.844 10.157L66.68 6.69"/></svg>