<svg width="77" height="86" fill="none" xmlns="http://www.w3.org/2000/svg"><path d="M7.748 30.893v46.5a6 6 0 006 6h41.5" stroke="#FFAC30" stroke-linecap="round"/><path d="M.748 35.994l37-28 37.801 28" stroke="#FFAC30" stroke-linecap="round" stroke-linejoin="round"/><circle cx="37.248" cy="50.893" r="17" stroke="#FFAC30"/><path fill-rule="evenodd" clip-rule="evenodd" d="M37.248 62.393c6.35 0 11.5-5.15 11.5-11.5 0-6.352-5.15-11.5-11.5-11.5-6.352 0-11.5 5.148-11.5 11.5 0 6.35 5.148 11.5 11.5 11.5zm6.343-15.137a.5.5 0 00-.687-.727l-8.127 7.676-3.186-3.01a.5.5 0 00-.687.728l3.873 3.657 8.814-8.324z" fill="#FFAC30"/><path d="M52.112 60.1l15.875 15.875a4 4 0 01-5.657 5.657L46.455 65.756l5.657-5.656z" stroke="#FFAC30"/><path stroke="#FFAC30" stroke-linecap="round" d="M67.248 29.893v38"/></svg>