<svg width="80" height="79" fill="none" xmlns="http://www.w3.org/2000/svg"><path d="M9.5 51.508v0C4.34 51.508.241 55.849.527 61v0c.265 4.77 4.21 8.508 8.987 8.508H47.5" stroke="#FFAC30"/><path d="M.5 60.508v-46.5a9 9 0 019-9v47m-.5-34.5h37m15 0h11m-.5 28.5v-28M36.17 42.18l31.167-31.166a5.192 5.192 0 000-7.343v0a5.192 5.192 0 00-7.343 0L28.827 34.838" stroke="#FFAC30"/><path d="M28.696 35.41l6.892 6.893-10.137 3.245 3.245-10.137z" fill="#FFAC30" stroke="#FFAC30"/><path d="M67.216 3.679a5.192 5.192 0 010 7.342l-2.874 2.874L57 6.553l2.874-2.874a5.192 5.192 0 017.342 0z" fill="#FFAC30"/><path stroke="#FFAC30" d="M55.354 8.654l7 7m-33 19l7 7"/><path stroke="#FFAC30" stroke-linecap="round" d="M20.5 46.508h32m3.5 14.5l23-23v40H39l13-13"/><path d="M59.207 69.508L69.5 59.215v10.293H59.207z" stroke="#FFAC30"/><path stroke="#FFAC30" stroke-linecap="round" d="M74.5 51.508h4m-4 7h4m-4 5h4m-4 6h4"/></svg>