<svg width="101" height="101" fill="none" xmlns="http://www.w3.org/2000/svg"><path d="M85.932 71.79L21.213 7.071c-3.905-3.905-10.237-3.905-14.142 0v0c-3.905 3.905-3.905 10.237 0 14.142l64.72 64.72" stroke="#FFAC30"/><path d="M85.823 71.632l7.24 21.43-21.43-7.24" stroke="#FFAC30"/><path d="M7.071 7.071c3.905-3.905 10.237-3.905 14.142 0l5.535 5.535-14.142 14.142-5.535-5.535c-3.905-3.905-3.905-10.237 0-14.142z" fill="#FFAC30"/><path stroke="#FFAC30" d="M16.646 30.646l14-14"/><path stroke="#FFAC30" stroke-linecap="round" d="M24.707 24L30 29.293M34.707 34L79 78.293"/><path d="M48.5 34.676L77.762 5.413a6 6 0 018.486 0l5.656 5.657a6 6 0 010 8.486L62.96 48.5M48.5 62.96L19.385 92.075a6 6 0 01-8.486 0l-5.656-5.657a6 6 0 010-8.485L34.676 48.5" stroke="#FFAC30"/><path stroke="#FFAC30" stroke-linecap="round" stroke-linejoin="round" d="M72.435 37.456l-7.778-7.778m24.749-9.193l-7.779-7.778m-3.535 19.092l-2.829-2.828m-8.485 14.142l-2.828-2.829m19.799-14.142l-2.829-2.828M37.435 73.192l-7.778-7.778m-9.879 24.515L12 82.151m31.092-14.615l-2.829-2.829M25.435 84.272l-2.828-2.828m9.171-2.595l-2.828-2.828"/></svg>