<svg width="76" height="87" fill="none" xmlns="http://www.w3.org/2000/svg"><path d="M9.248 27h-2.5a6 6 0 01-6-6V7a6 6 0 016-6h54a6 6 0 016 6v14a6 6 0 01-6 6h-26.5" stroke="#FFAC30"/><rect x="46.248" y="49.5" width="37" height="18" rx="5.5" transform="rotate(90 46.248 49.5)" stroke="#FFAC30"/><path d="M9.748 1.5V43a7 7 0 007 7v0a7 7 0 007-7V23.5m10-22V34a5 5 0 01-5 5v0a5 5 0 01-5-5V20.97m42.5-6.97h8.5v14.5c0 4.5-2.5 5.5-7.5 7s-20.5 6-24 7-6 2.5-6 7" stroke="#FFAC30"/><path fill="#FFAC30" d="M27.748 57h19v8h-19z"/></svg>