<svg width="250" height="365" viewBox="0 0 250 365" fill="none" xmlns="http://www.w3.org/2000/svg">
<path d="M138.562 109C138.562 110.938 138.156 112.729 137.344 114.375C136.552 116.021 135.479 117.427 134.125 118.594C135.479 119.781 136.552 121.208 137.344 122.875C138.156 124.521 138.562 126.292 138.562 128.188C138.562 129.958 138.219 131.625 137.531 133.188C136.865 134.729 135.948 136.083 134.781 137.25C133.635 138.396 132.281 139.312 130.719 140C129.156 140.667 127.5 141 125.75 141H96.9375V134.594H125.75C126.625 134.594 127.448 134.427 128.219 134.094C129.01 133.76 129.698 133.302 130.281 132.719C130.865 132.135 131.323 131.458 131.656 130.688C131.99 129.896 132.156 129.062 132.156 128.188C132.156 127.312 131.99 126.49 131.656 125.719C131.323 124.948 130.865 124.271 130.281 123.688C129.698 123.104 129.01 122.646 128.219 122.312C127.448 121.979 126.625 121.812 125.75 121.812H105V115.406H125.75C126.625 115.406 127.448 115.24 128.219 114.906C129.01 114.573 129.698 114.115 130.281 113.531C130.865 112.948 131.323 112.271 131.656 111.5C131.99 110.708 132.156 109.875 132.156 109C132.156 108.125 131.99 107.302 131.656 106.531C131.323 105.74 130.865 105.052 130.281 104.469C129.698 103.885 129.01 103.427 128.219 103.094C127.448 102.76 126.625 102.594 125.75 102.594H96.9375V96.1875H125.75C127.5 96.1875 129.156 96.5312 130.719 97.2188C132.281 97.8854 133.635 98.8021 134.781 99.9688C135.948 101.115 136.865 102.469 137.531 104.031C138.219 105.594 138.562 107.25 138.562 109Z" fill="white"/>
<path d="M117.5 237C53.1588 237 1.00001 184.841 1.00001 120.5C1.00001 56.1588 53.1588 3.99999 117.5 3.99999C181.841 4 234 56.1588 234 120.5C234 184.841 181.841 237 117.5 237Z" stroke="white" stroke-opacity="0.4" stroke-width="2"/>
<mask id="mask0_502_400" style="mask-type:alpha" maskUnits="userSpaceOnUse" x="118" y="3" width="132" height="187">
<rect width="132" height="187" transform="matrix(1 0 0 -1 118 190)" fill="#C4C4C4"/>
</mask>
<g mask="url(#mask0_502_400)">
<path d="M117.5 237C53.1588 237 1.00001 184.841 1.00001 120.5C1.00001 56.1588 53.1588 3.99999 117.5 3.99999C181.841 4 234 56.1588 234 120.5C234 184.841 181.841 237 117.5 237Z" stroke="#FFAC30" stroke-width="2"/>
</g>
<ellipse cx="117.999" cy="4" rx="4" ry="4" transform="rotate(90 117.999 4)" fill="#FFAC30"/>
<ellipse cx="117.999" cy="237" rx="4" ry="4" transform="rotate(90 117.999 237)" fill="white"/>
<ellipse cx="212" cy="53" rx="4" ry="4" transform="rotate(90 212 53)" fill="#FFAC30"/>
<ellipse cx="22" cy="53" rx="4" ry="4" transform="rotate(90 22 53)" fill="white"/>
<ellipse cx="23" cy="190" rx="4" ry="4" transform="rotate(90 23 190)" fill="white"/>
<ellipse cx="212" cy="190" rx="7" ry="7" transform="rotate(90 212 190)" fill="#FFAC30"/>
<path d="M212 204.5C203.992 204.5 197.5 198.008 197.5 190C197.5 181.992 203.992 175.5 212 175.5C220.008 175.5 226.5 181.992 226.5 190C226.5 198.008 220.008 204.5 212 204.5Z" stroke="#FFAC30" stroke-opacity="0.5"/>
<path d="M212 212.5C199.574 212.5 189.5 202.426 189.5 190C189.5 177.574 199.574 167.5 212 167.5C224.426 167.5 234.5 177.574 234.5 190C234.5 202.426 224.426 212.5 212 212.5Z" stroke="#FFAC30" stroke-opacity="0.2"/>
<path d="M117 272H87C83.6863 272 81 274.686 81 278V336C81 339.314 83.6863 342 87 342H125C128.314 342 131 339.314 131 336V294" stroke="#FFAC30" stroke-linejoin="round"/>
<path d="M106 342L106 358C106 361.314 108.686 364 112 364H150C153.314 364 156 361.314 156 358V317" stroke="#FFAC30" stroke-linejoin="round"/>
<path d="M117 286H132L117 272V286Z" fill="#FFAC30" stroke="#FFAC30" stroke-linejoin="round"/>
<path d="M141 308H156L141 294V308Z" fill="#FFAC30" stroke="#FFAC30" stroke-linejoin="round"/>
<line x1="141" y1="294.5" x2="131" y2="294.5" stroke="#FFAC30"/>
<line x1="121" y1="330.5" x2="91" y2="330.5" stroke="#FFAC30"/>
<line x1="121" y1="322.5" x2="91" y2="322.5" stroke="#FFAC30"/>
<line x1="121" y1="313.5" x2="91" y2="313.5" stroke="#FFAC30"/>
</svg>
