<svg width="60" height="60" fill="none" xmlns="http://www.w3.org/2000/svg"><path d="M30 52C17.85 52 8 42.15 8 30S17.85 8 30 8s22 9.85 22 22-9.85 22-22 22z" stroke="#fff" stroke-opacity=".3"/><circle cx="30" cy="30" r="29.5" transform="rotate(90 30 30)" stroke="#fff" stroke-opacity=".1"/><circle cx="30" cy="30" r="15" transform="rotate(90 30 30)" fill="#fff" fill-opacity=".15"/><path d="M36.282 34.607c0-.062 0-.125-.026-.187-.063-.188-.5-.384-.679-.474-.509-.285-1.027-.562-1.527-.857-.232-.143-.518-.41-.794-.41-.545 0-1.34 1.616-1.822 1.616-.24 0-.553-.224-.768-.349-1.625-.901-2.75-2.026-3.651-3.651-.125-.215-.349-.527-.349-.768 0-.482 1.616-1.277 1.616-1.822 0-.276-.267-.562-.41-.794-.295-.5-.572-1.018-.857-1.527-.09-.179-.286-.616-.474-.679-.062-.026-.125-.026-.187-.026-.322 0-.947.142-1.241.276-.438.188-.723.688-.947 1.09-.285.526-.455 1.062-.455 1.66 0 .83.34 1.58.616 2.34.196.544.438 1.071.741 1.562.938 1.518 2.768 3.348 4.286 4.286a8.35 8.35 0 001.562.74c.76.278 1.51.617 2.34.617.598 0 1.133-.17 1.66-.455.402-.224.902-.51 1.09-.947.133-.294.276-.92.276-1.24z" fill="#fff"/></svg>