<svg width="22" height="15" fill="none" xmlns="http://www.w3.org/2000/svg"><path d="M21.234 2.344c.078.312.144.703.196 1.172.078.468.13.937.156 1.406.026.443.039.86.039 1.25.026.39.04.716.04.976V7.5c0 2.344-.144 4.075-.43 5.195-.13.443-.365.834-.704 1.172a2.707 2.707 0 01-1.21.703c-.495.13-1.433.235-2.813.313-1.38.052-2.643.091-3.79.117H11c-4.453 0-7.227-.143-8.32-.43-1.016-.286-1.654-.911-1.914-1.875-.13-.495-.235-1.172-.313-2.03-.052-.887-.091-1.63-.117-2.228V7.5c0-2.318.143-4.036.43-5.156.13-.469.364-.873.703-1.211A2.708 2.708 0 012.679.43C3.175.3 4.113.208 5.493.156A112.79 112.79 0 019.282 0H11c4.453 0 7.227.143 8.32.43.47.13.873.364 1.211.703a2.7 2.7 0 01.703 1.21zm-12.422 8.36L14.399 7.5 8.813 4.336v6.367z" fill="#fff" fill-opacity=".5"/></svg>