<svg width="250" height="292" fill="none" xmlns="http://www.w3.org/2000/svg"><path d="M114.906 180.594c0 1.979-.385 3.844-1.156 5.594a14.498 14.498 0 01-3.094 4.593c-1.291 1.292-2.812 2.323-4.562 3.094-1.75.75-3.615 1.125-5.594 1.125h-16c-1.98 0-3.844-.375-5.594-1.125a15.24 15.24 0 01-4.594-3.094 15.233 15.233 0 01-3.093-4.593c-.75-1.75-1.125-3.615-1.125-5.594v-16c0-1.979.375-3.844 1.125-5.594.77-1.75 1.802-3.271 3.093-4.562a14.507 14.507 0 014.594-3.094c1.75-.771 3.615-1.156 5.594-1.156h27.187v6.406H84.5a7.892 7.892 0 00-3.125.625 8.106 8.106 0 00-2.531 1.719 8.03 8.03 0 00-1.72 2.562 7.676 7.676 0 00-.624 3.094v16c0 1.104.208 2.146.625 3.125a8.03 8.03 0 001.719 2.562 8.407 8.407 0 002.53 1.688 7.91 7.91 0 003.126.625h16a7.69 7.69 0 003.094-.625 8.298 8.298 0 002.562-1.688 8.039 8.039 0 001.719-2.562 7.892 7.892 0 00.625-3.125 7.67 7.67 0 00-.625-3.094 8.039 8.039 0 00-1.719-2.562 8.006 8.006 0 00-2.562-1.719 7.673 7.673 0 00-3.094-.625H79.687v-6.406H100.5c1.979 0 3.844.385 5.594 1.156 1.75.75 3.271 1.781 4.562 3.094A14.132 14.132 0 01113.75 175c.771 1.75 1.156 3.615 1.156 5.594zm4.906-30.406h6.407v16c0 .874.166 1.708.5 2.5a6.483 6.483 0 003.406 3.406c.792.333 1.625.5 2.5.5h25.594v-22.406h6.406V195h-6.406v-16h-25.594c-1.771 0-3.438-.333-5-1a13.72 13.72 0 01-4.063-2.75 13.748 13.748 0 01-2.75-4.062c-.666-1.563-1-3.23-1-5v-16zM125.265 38v-8.355c0-1.024-.219-1.79-.656-2.297-.438-.516-1.117-.774-2.039-.774-1.211 0-2.106.348-2.684 1.043-.578.695-.867 1.766-.867 3.211V38h-1.945v-8.355c0-1.024-.219-1.79-.656-2.297-.438-.516-1.122-.774-2.051-.774-1.219 0-2.114.367-2.684 1.102-.562.726-.844 1.922-.844 3.586V38h-1.945V25.156h1.582l.317 1.758h.093a3.832 3.832 0 011.547-1.465c.672-.351 1.422-.527 2.25-.527 2.008 0 3.32.726 3.938 2.18h.093c.383-.672.938-1.204 1.664-1.594.727-.39 1.555-.586 2.485-.586 1.453 0 2.539.375 3.258 1.125.726.742 1.09 1.933 1.09 3.574V38h-1.946zm12.982-10h-6.57v-.977l2.632-2.646c.802-.811 1.331-1.39 1.586-1.736.255-.347.447-.684.574-1.012a2.89 2.89 0 00.192-1.06c0-.533-.162-.954-.486-1.264-.323-.315-.772-.472-1.346-.472a3.41 3.41 0 00-1.183.205c-.369.137-.782.385-1.237.745l-.602-.772c.921-.766 1.923-1.149 3.008-1.149.939 0 1.675.242 2.208.725.533.478.8 1.123.8 1.934 0 .634-.178 1.26-.533 1.88-.356.62-1.021 1.404-1.996 2.352l-2.188 2.14v.054h5.141V28z" fill="#fff"/><path d="M117.5 291C53.159 291 1 238.841 1 174.5 1 110.159 53.159 58 117.5 58 181.841 58 234 110.159 234 174.5c0 64.341-52.159 116.5-116.5 116.5z" stroke="#fff" stroke-opacity=".4" stroke-width="2"/><mask id="a" style="mask-type:alpha" maskUnits="userSpaceOnUse" x="117" y="57" width="133" height="78"><path transform="matrix(1 0 0 -1 118 135)" fill="#C4C4C4" d="M0 0h132v78H0z"/></mask><g mask="url(#a)"><path d="M117.499 291c-64.34 0-116.5-52.159-116.5-116.5C1 110.159 53.16 58 117.5 58 181.842 58 234 110.159 234 174.5c0 64.341-52.158 116.5-116.5 116.5z" stroke="#FFAC30" stroke-width="2"/></g><circle cx="117.999" cy="58" transform="rotate(90 117.999 58)" fill="#FFAC30" r="4"/><circle cx="225" cy="132" transform="rotate(90 225 132)" fill="#FFAC30" r="7"/><path d="M225 146.5c-8.008 0-14.5-6.492-14.5-14.5s6.492-14.5 14.5-14.5 14.5 6.492 14.5 14.5-6.492 14.5-14.5 14.5z" stroke="#FFAC30" stroke-opacity=".5"/><path d="M225 154.5c-12.426 0-22.5-10.074-22.5-22.5s10.074-22.5 22.5-22.5 22.5 10.074 22.5 22.5-10.074 22.5-22.5 22.5z" stroke="#FFAC30" stroke-opacity=".2"/></svg>