<svg width="250" height="241" fill="none" xmlns="http://www.w3.org/2000/svg"><path d="M138.562 109c0 1.938-.406 3.729-1.218 5.375a12.869 12.869 0 01-3.219 4.219 13.102 13.102 0 013.219 4.281c.812 1.646 1.218 3.417 1.218 5.313 0 1.77-.343 3.437-1.031 5a12.96 12.96 0 01-2.75 4.062c-1.146 1.146-2.5 2.062-4.062 2.75-1.563.667-3.219 1-4.969 1H96.937v-6.406h28.813a6.16 6.16 0 002.469-.5 6.407 6.407 0 003.437-3.406 6.37 6.37 0 00.5-2.5 6.14 6.14 0 00-.5-2.469 6.394 6.394 0 00-3.437-3.407 6.16 6.16 0 00-2.469-.5H105v-6.406h20.75c.875 0 1.698-.166 2.469-.5a6.375 6.375 0 002.062-1.375 6.46 6.46 0 001.375-2.031c.334-.792.5-1.625.5-2.5s-.166-1.698-.5-2.469a6.375 6.375 0 00-1.375-2.062 6.375 6.375 0 00-2.062-1.375 6.143 6.143 0 00-2.469-.5H96.937v-6.406h28.813c1.75 0 3.406.343 4.969 1.03a12.51 12.51 0 014.062 2.75 12.5 12.5 0 012.75 4.063 12.196 12.196 0 011.031 4.969z" fill="#fff"/><path d="M117.5 237C53.159 237 1 184.841 1 120.5 1 56.159 53.159 4 117.5 4 181.841 4 234 56.159 234 120.5c0 64.341-52.159 116.5-116.5 116.5z" stroke="#fff" stroke-opacity=".4" stroke-width="2"/><mask id="a" style="mask-type:alpha" maskUnits="userSpaceOnUse" x="117" y="3" width="133" height="187"><path transform="matrix(1 0 0 -1 118 190)" fill="#C4C4C4" d="M0 0h132v187H0z"/></mask><g mask="url(#a)"><path d="M117.499 237c-64.34 0-116.5-52.159-116.5-116.5C1 56.159 53.16 4 117.5 4 181.842 4 234 56.159 234 120.5c0 64.341-52.158 116.5-116.5 116.5z" stroke="#FFAC30" stroke-width="2"/></g><circle cx="117.999" cy="4" transform="rotate(90 117.999 4)" fill="#FFAC30" r="4"/><circle cx="117.999" cy="237" transform="rotate(90 117.999 237)" fill="#fff" r="4"/><circle cx="212" cy="53" transform="rotate(90 212 53)" fill="#FFAC30" r="4"/><circle cx="22" cy="53" transform="rotate(90 22 53)" fill="#fff" r="4"/><circle cx="23" cy="190" transform="rotate(90 23 190)" fill="#fff" r="4"/><circle cx="212" cy="190" transform="rotate(90 212 190)" fill="#FFAC30" r="7"/><path d="M212 204.5c-8.008 0-14.5-6.492-14.5-14.5s6.492-14.5 14.5-14.5 14.5 6.492 14.5 14.5-6.492 14.5-14.5 14.5z" stroke="#FFAC30" stroke-opacity=".5"/><path d="M212 212.5c-12.426 0-22.5-10.074-22.5-22.5s10.074-22.5 22.5-22.5 22.5 10.074 22.5 22.5-10.074 22.5-22.5 22.5z" stroke="#FFAC30" stroke-opacity=".2"/></svg>