<svg width="21" height="21" fill="none" xmlns="http://www.w3.org/2000/svg"><path d="M11.685 14.47h0c.076.044.145.087.212.128.108.066.21.13.33.193.171.09.28.125.338.132a.387.387 0 00.042-.024c.06-.039.14-.105.24-.206.194-.195.405-.456.642-.749l.038-.046c.241-.299.51-.627.775-.88.133-.128.28-.251.438-.344a1.14 1.14 0 01.577-.174c.357 0 .67.168.887.304.113.071.222.149.315.214l.004.003c.098.07.175.124.244.167.493.29.993.566 1.5.846.253.14.509.281.766.426l.068.033c.134.065.341.167.53.28.117.07.244.155.355.252a1.024 1.024 0 01.371.853v.015c0 .296-.063.693-.144 1.055a5.663 5.663 0 01-.314 1.008c-.188.436-.517.768-.847 1.024a7.831 7.831 0 01-1.001.631l-.005.003h0c-.845.458-1.73.743-2.729.743-1.157 0-2.225-.405-3.187-.77a55.952 55.952 0 00-.493-.184 13.015 13.015 0 01-2.435-1.156s0 0 0 0l.262-.426 2.221-3.351zm0 0l-.01-.005m.01.005l-.01-.005m0 0C9.32 13.157 7.7 11.537 6.394 9.18h0m5.283 5.284L6.393 9.18m0 0l-.006-.009m.006.01l-.006-.01m0 0c-.044-.076-.087-.145-.128-.212a5.584 5.584 0 01-.193-.33 1.125 1.125 0 01-.132-.338.375.375 0 01.024-.041c.039-.06.105-.14.207-.241.194-.194.455-.405.748-.642l.047-.038c.298-.241.627-.51.88-.775.128-.133.25-.28.343-.438a1.14 1.14 0 00.174-.577c0-.357-.168-.67-.304-.887-.071-.113-.149-.222-.214-.315l-.003-.004a4.994 4.994 0 01-.167-.244 63.35 63.35 0 01-.846-1.499c-.14-.254-.281-.51-.426-.767l-.033-.068a7.122 7.122 0 00-.28-.53A2.472 2.472 0 005.832.87a1.03 1.03 0 00-.408-.298A1.154 1.154 0 004.964.5c-.296 0-.693.063-1.055.144A5.667 5.667 0 002.9.958c-.435.188-.768.517-1.024.847a7.82 7.82 0 00-.631 1.001h0m5.141 6.366l-5.14-6.366m0 0l-.002.005m.002-.005l-.002.005m0 0C.785 3.656.5 4.54.5 5.54m.744-2.73L.5 5.54m0 0c0 1.156.405 2.224.77 3.186M.5 5.54l.77 3.187m0 0c.063.167.125.332.184.493m-.184-.493l.184.493m0 0c.304.842.68 1.664 1.156 2.436L1.454 9.22z" stroke="#FFAC30"/></svg>